# xmcd CD database file
#
# Track frame offsets:
#	150
#	20119
#	33781
#	52731
#	76196
#	95416
#	120404
#	145247
#	159925
#	166008
#	178695
#	195334
#
# Disc length: 2712 seconds
#
# Revision: 0
# Processed by: cddbd v1.5.2PL0 Copyright (c) Steve Scherf et al.
# Submitted via: CDex 1.70beta2
#
DISCID=820a960c
DTITLE=Terje Isungset - Two Moons
DYEAR=2006
DGENRE=Jazz
TTITLE0=Mountain
TTITLE1=Black Moon
TTITLE2=Silent Blue
TTITLE3=Long Shadow
TTITLE4=Vista
TTITLE5=Peak
TTITLE6=Solar Freeze
TTITLE7=Moon Sphere
TTITLE8=Darkest Hour
TTITLE9=Silent Yellow
TTITLE10=Two Moons
TTITLE11=Serene
EXTD=YEAR: 2006
EXTT0=
EXTT1=
EXTT2=
EXTT3=
EXTT4=
EXTT5=
EXTT6=
EXTT7=
EXTT8=
EXTT9=
EXTT10=
EXTT11=
PLAYORDER=
